<?xml version="1.0" standalone="no"?>
<!DOCTYPE svg PUBLIC "-//W3C//DTD SVG 20010904//EN"
 "http://www.w3.org/TR/2001/REC-SVG-20010904/DTD/svg10.dtd">
<svg version="1.0" xmlns="http://www.w3.org/2000/svg"
 width="48.000000pt" height="48.000000pt" viewBox="0 0 48.000000 48.000000"
 preserveAspectRatio="xMidYMid meet">

<g transform="translate(0.000000,48.000000) scale(0.100000,-0.100000)"
fill="#000000" stroke="none">
<path d="M135 411 c-46 -20 -102 -79 -111 -117 -10 -38 2 -100 24 -132 l21
-28 -24 -42 -24 -42 27 0 c15 0 43 9 63 19 30 16 43 18 85 10 95 -18 193 20
241 92 21 33 25 47 21 92 -6 69 -33 108 -100 141 -65 32 -161 35 -223 7z"/>
</g>
</svg>
